<?xml version="1.0" standalone="no"?>
<!DOCTYPE svg PUBLIC "-//W3C//DTD SVG 20010904//EN"
 "http://www.w3.org/TR/2001/REC-SVG-20010904/DTD/svg10.dtd">
<svg version="1.0" xmlns="http://www.w3.org/2000/svg"
 width="600.000000pt" height="486.000000pt" viewBox="0 0 600.000000 486.000000"
 preserveAspectRatio="xMidYMid meet">
<g transform="translate(0.000000,486.000000) scale(0.100000,-0.100000)"
fill="#000000" stroke="none">
<path d="M3240 4720 c0 -8 10 -20 23 -26 12 -6 94 -55 182 -109 88 -54 255
-154 370 -223 116 -69 212 -128 215 -131 3 -4 24 -15 47 -26 24 -11 43 -23 43
-27 0 -5 7 -8 15 -8 8 0 15 -5 15 -11 0 -5 4 -8 9 -5 5 4 23 -5 39 -19 16 -14
35 -25 41 -25 7 0 17 -5 24 -11 7 -6 28 -20 48 -32 20 -12 89 -57 153 -99 64
-43 120 -78 125 -78 5 0 11 -4 13 -8 2 -7 247 -162 325 -207 87 -50 120 -80
149 -137 23 -45 24 -55 25 -286 l1 -239 292 -2 c160 0 333 -4 384 -7 59 -4 92
-3 92 3 0 11 -30 16 -220 33 -69 7 -204 19 -300 29 l-175 16 -1 190 c0 105 -5
209 -11 232 -21 88 -80 159 -170 208 -44 23 -301 171 -385 221 -31 19 -61 34
-67 34 -6 0 -11 5 -11 10 0 6 -4 10 -9 10 -4 0 -46 22 -92 48 -46 27 -104 60
-129 74 -62 34 -247 141 -290 167 -19 11 -42 24 -50 28 -8 3 -53 30 -100 58
-79 48 -220 131 -415 245 -44 26 -105 60 -135 76 -30 16 -58 34 -62 39 -5 6
-8 4 -8 -5z m1780 -1060 c0 -5 -2 -10 -4 -10 -3 0 -8 5 -11 10 -3 6 -1 10 4
10 6 0 11 -4 11 -10z m74 -66 c3 -8 2 -12 -4 -9 -6 3 -10 10 -10 16 0 14 7 11
14 -7z m36 -75 c0 -7 -6 -4 -15 7 -19 25 -19 40 0 20 8 -8 15 -20 15 -27z m17
-121 c-3 -8 -6 -5 -6 6 -1 11 2 17 5 13 3 -3 4 -12 1 -19z m0 -170 c-2 -29 -3
-8 -3 47 0 55 1 79 3 53 2 -26 2 -71 0 -100z m3 -119 c0 -5 -4 -9 -10 -9 -5 0
-10 7 -10 16 0 8 5 12 10 9 6 -3 10 -10 10 -16z m22 -49 l22 -20 -25 0 c-31 0
-39 7 -32 26 7 18 10 18 35 -6z"/>
<path d="M2755 4684 c-28 -14 -59 -32 -70 -39 -11 -7 -110 -65 -220 -129 -110
-65 -236 -139 -280 -166 -70 -42 -405 -235 -535 -308 -25 -14 -88 -50 -140
-80 -52 -30 -115 -66 -140 -80 -204 -114 -331 -190 -367 -219 -27 -21 -54 -58
-75 -101 l-33 -67 0 -207 0 -207 -75 -6 c-41 -3 -115 -10 -165 -15 -49 -5
-124 -12 -165 -15 -41 -4 -115 -10 -165 -15 -49 -6 -101 -10 -114 -10 -14 0
-21 -4 -15 -8 5 -4 180 -6 389 -4 l380 4 0 241 c0 269 -1 262 71 350 7 8 58
43 115 78 57 35 106 67 107 71 2 4 8 8 12 8 12 0 305 181 395 244 103 71 216
142 278 174 28 14 54 29 57 33 7 9 68 40 76 38 4 0 10 4 13 9 5 8 157 102 166
102 3 0 376 225 472 285 26 17 61 38 78 48 47 27 5 20 -50 -9z m-1635 -979
c-7 -9 -15 -13 -19 -10 -3 3 1 10 9 15 21 14 24 12 10 -5z m-78 -67 c-7 -7
-12 -8 -12 -2 0 14 12 26 19 19 2 -3 -1 -11 -7 -17z m-105 -150 c-3 -8 -6 -5
-6 6 -1 11 2 17 5 13 3 -3 4 -12 1 -19z m-10 -50 c-3 -8 -6 -5 -6 6 -1 11 2
17 5 13 3 -3 4 -12 1 -19z m0 -95 c-2 -16 -4 -3 -4 27 0 30 2 43 4 28 2 -16 2
-40 0 -55z m3 -271 c0 -25 -4 -28 -37 -30 -29 -1 -33 1 -18 7 11 5 27 18 35
30 19 27 20 27 20 -7z"/>
<path d="M2837 4468 c-59 -3 -130 -11 -157 -17 -28 -6 -74 -16 -102 -22 -108
-22 -219 -57 -318 -102 -60 -27 -157 -83 -125 -72 11 4 31 9 45 11 13 3 30 10
37 16 7 6 13 7 13 2 0 -5 4 -4 8 1 8 12 140 65 161 65 7 0 27 6 44 14 51 23
98 36 126 36 15 0 31 4 36 9 6 5 53 14 105 21 52 7 113 15 135 18 22 3 136 5
253 4 118 0 212 1 210 3 -5 5 -188 16 -293 19 -38 0 -119 -2 -178 -6z"/>
<path d="M3323 4445 c0 -10 11 -15 29 -15 27 0 49 -4 168 -32 71 -16 171 -48
215 -68 22 -10 56 -23 75 -30 19 -7 50 -19 68 -27 54 -24 48 -8 -10 25 -44 26
-145 69 -183 79 -5 1 -44 12 -85 23 -100 28 -104 29 -188 40 -40 5 -77 12 -81
14 -4 3 -8 -1 -8 -9z"/>
<path d="M2800 4343 c-152 -23 -275 -47 -315 -63 -11 -4 -38 -13 -60 -19 -79
-24 -166 -61 -278 -118 -117 -59 -147 -77 -147 -85 0 -5 -6 -8 -14 -8 -8 0
-16 -3 -18 -8 -1 -4 -37 -32 -78 -61 -73 -53 -205 -161 -197 -161 6 0 -90 -97
-100 -102 -9 -4 -30 -32 -128 -178 -39 -58 -73 -109 -74 -115 -6 -19 -44 -90
-51 -95 -7 -5 -20 -37 -20 -52 0 -5 -9 -24 -21 -44 -11 -20 -18 -38 -16 -40 4
-5 87 143 87 155 0 5 4 11 8 13 5 2 28 37 53 78 43 73 100 155 149 215 26 32
229 233 252 250 150 113 362 245 392 245 6 0 21 7 32 15 45 31 247 99 374 126
160 34 235 42 402 43 82 0 148 4 148 9 0 4 -15 7 -32 7 -18 0 -85 2 -148 3
-63 2 -153 -3 -200 -10z"/>
<path d="M3220 4336 c0 -9 50 -12 62 -5 8 6 -1 9 -24 9 -21 0 -38 -2 -38 -4z"/>
<path d="M3304 4322 c3 -5 29 -12 58 -16 29 -4 64 -8 78 -10 24 -4 136 -37
235 -71 55 -18 336 -151 345 -163 3 -4 21 -16 40 -26 19 -11 41 -26 49 -34 8
-7 26 -21 40 -30 123 -80 334 -296 439 -453 55 -81 172 -286 172 -300 0 -5 4
-9 9 -9 10 0 -24 97 -41 117 -5 6 -25 42 -44 79 -19 37 -39 73 -45 81 -6 7 -8
13 -4 13 5 0 -1 8 -11 18 -10 9 -25 28 -33 41 -22 40 -112 151 -122 151 -5 0
-9 5 -9 11 0 6 -13 24 -30 41 -16 16 -30 34 -30 40 0 6 -3 9 -6 5 -3 -3 -32
20 -63 51 -62 62 -84 80 -176 144 -33 23 -66 48 -74 56 -8 8 -27 19 -43 24
-15 6 -28 14 -28 20 0 5 -4 7 -8 4 -5 -3 -18 4 -30 14 -12 11 -25 20 -30 20
-4 0 -30 11 -58 24 -42 22 -98 46 -114 51 -3 1 -22 9 -44 18 -21 9 -43 17 -48
17 -5 0 -37 9 -71 21 -34 12 -73 23 -87 26 -14 2 -41 8 -60 13 -61 15 -163 23
-156 12z"/>
<path d="M2862 4209 c-13 -5 -38 -8 -55 -8 -43 2 -103 -7 -212 -33 -49 -12
-96 -21 -102 -21 -7 0 -13 -4 -13 -8 0 -4 -15 -10 -32 -14 -47 -9 -209 -72
-260 -100 -24 -13 -59 -32 -78 -41 -45 -23 -184 -105 -190 -114 -3 -3 -30 -25
-60 -47 -98 -73 -178 -149 -271 -256 -117 -134 -139 -161 -139 -174 0 -7 -4
-13 -8 -13 -4 0 -21 -26 -37 -57 -17 -32 -33 -60 -36 -63 -3 -3 -14 -24 -25
-47 -25 -51 -5 -47 22 5 46 88 70 122 82 117 7 -3 10 -1 7 4 -7 13 16 62 26
55 5 -3 9 1 9 9 0 8 20 36 46 63 25 27 45 49 44 49 -1 0 2 8 5 18 4 9 13 17
20 17 7 0 15 9 18 21 3 11 15 23 26 26 11 3 18 9 15 14 -3 5 3 12 13 16 25 10
43 29 35 38 -4 5 -1 5 6 1 16 -10 -17 -57 -36 -51 -7 3 -10 0 -7 -6 4 -5 1
-16 -5 -24 -15 -18 -34 -20 -24 -3 4 7 3 8 -5 4 -6 -4 -9 -12 -6 -17 8 -12
-20 -51 -30 -41 -4 4 -6 0 -3 -9 4 -9 -2 -22 -13 -30 -10 -7 -19 -18 -19 -24
0 -5 -16 -30 -35 -54 -19 -24 -35 -50 -35 -57 0 -7 -3 -14 -8 -16 -13 -5 -70
-102 -77 -130 -4 -15 -13 -32 -21 -39 -8 -6 -19 -29 -25 -51 -6 -22 -21 -51
-34 -63 -21 -22 -31 -24 -149 -24 -124 -1 -132 1 -127 32 0 4 -3 7 -8 7 -8 0
-20 -32 -21 -52 0 -5 74 -8 164 -8 l164 0 7 28 c19 81 179 361 266 466 36 44
240 248 274 274 64 49 229 162 237 162 5 0 26 11 47 24 58 37 310 137 376 150
11 3 74 16 140 30 99 21 189 31 335 39 8 0 31 -3 50 -7 24 -5 31 -4 21 3 -11
7 2 10 43 10 58 0 76 5 62 18 -11 11 -328 13 -354 2z m-1105 -523 c-7 -13 -15
-22 -20 -19 -5 3 -1 14 9 24 22 25 24 24 11 -5z"/>
<path d="M3255 4200 c-25 -5 -27 -7 -12 -13 10 -4 28 -7 39 -7 17 0 18 -3 9
-14 -10 -11 -9 -14 1 -12 7 1 19 5 26 9 6 5 12 4 12 -1 0 -5 19 -12 43 -16 23
-4 51 -9 62 -10 26 -5 115 -32 183 -56 28 -11 52 -16 52 -12 0 4 4 2 8 -4 4
-5 30 -18 57 -29 211 -78 501 -293 670 -495 113 -136 244 -350 297 -488 l17
-44 153 5 c84 2 153 6 153 8 0 2 -6 24 -14 49 -7 25 -15 51 -17 59 -3 8 -6 12
-9 9 -2 -2 2 -27 9 -56 l14 -52 -125 0 c-124 0 -163 8 -163 34 0 28 -118 254
-152 290 -20 22 -22 34 -9 55 8 12 13 11 30 -10 11 -13 20 -30 21 -36 0 -7 9
-18 20 -25 11 -7 20 -18 20 -25 0 -7 5 -13 11 -13 5 0 7 -4 4 -10 -3 -5 3 -20
14 -32 47 -50 16 18 -65 142 -63 97 -204 251 -349 379 -146 129 -388 264 -605
337 -158 54 -154 53 -250 65 -41 6 -86 14 -100 18 -14 4 -38 4 -55 1z m1026
-477 c13 -16 12 -17 -3 -4 -17 13 -22 21 -14 21 2 0 10 -8 17 -17z m49 -55 c0
-5 -7 -3 -15 6 -8 8 -15 18 -15 22 0 3 7 1 15 -6 8 -7 15 -17 15 -22z m45 -38
c3 -5 1 -10 -4 -10 -6 0 -11 5 -11 10 0 6 2 10 4 10 3 0 8 -4 11 -10z m72 -64
c-3 -8 2 -16 14 -19 10 -3 23 -17 29 -31 5 -14 12 -26 15 -26 4 0 3 4 0 10 -3
6 1 7 9 4 9 -3 16 -15 16 -25 0 -10 4 -19 9 -19 13 0 19 -23 11 -45 -7 -20
-16 -9 -75 84 -5 9 -18 23 -27 32 -10 9 -18 21 -18 27 0 6 -6 13 -12 15 -7 3
-2 6 11 6 16 1 21 -3 18 -13z"/>
<path d="M2779 4055 c-91 -15 -193 -40 -252 -61 -23 -9 -49 -17 -57 -19 -59
-13 -226 -94 -342 -166 -115 -71 -162 -109 -281 -227 -114 -112 -186 -201
-256 -315 -40 -65 -131 -241 -131 -252 0 -4 21 -5 46 -3 44 3 47 5 63 43 33
84 186 323 213 333 4 2 8 10 8 19 0 29 28 7 103 -82 42 -49 97 -112 122 -140
52 -56 75 -100 75 -143 0 -28 2 -30 46 -30 l46 -1 -6 32 c-4 18 -9 39 -11 47
-10 47 -50 99 -166 215 -112 113 -129 134 -129 163 0 61 71 95 116 55 10 -10
67 -61 125 -115 59 -53 124 -108 145 -122 153 -100 357 -6 388 180 5 27 1 64
-13 115 -11 41 -31 119 -46 173 -14 55 -28 103 -31 107 -21 34 45 95 90 83 40
-10 52 -33 91 -174 52 -191 69 -230 117 -279 55 -56 88 -72 157 -78 75 -7 128
9 180 53 55 47 86 97 99 159 6 28 29 106 50 175 32 105 42 127 64 138 34 16
74 1 90 -34 10 -21 6 -52 -22 -187 -52 -243 -46 -316 32 -396 75 -77 196 -99
289 -53 51 25 43 18 193 171 124 126 145 134 190 80 43 -51 41 -56 -110 -212
-123 -128 -162 -186 -171 -259 l-5 -36 43 1 44 2 5 46 c5 43 32 90 80 139 8 9
49 54 90 100 41 47 78 87 83 88 4 2 7 10 7 18 0 8 9 14 20 14 11 0 20 -4 20
-9 0 -5 6 -16 13 -23 48 -49 217 -335 217 -368 0 -5 22 -10 49 -10 l50 0 -21
47 c-12 27 -30 64 -41 83 -11 19 -29 53 -40 75 -71 141 -342 448 -457 520 -25
15 -47 31 -50 34 -5 6 -59 42 -125 82 -100 62 -309 146 -405 164 -19 3 -44 10
-55 15 -75 33 -494 50 -636 25z m421 -19 c53 -5 193 -27 210 -33 8 -4 19 -5
24 -4 5 1 17 -6 27 -15 10 -9 23 -13 29 -9 12 7 137 -32 146 -46 3 -5 9 -7 14
-4 5 3 11 1 15 -5 3 -5 15 -10 25 -10 10 0 25 -7 33 -15 8 -8 17 -12 20 -9 3
3 29 -10 58 -29 30 -19 63 -37 75 -41 11 -3 29 -14 40 -24 10 -9 31 -23 46
-31 15 -8 37 -22 47 -33 11 -10 25 -18 31 -18 5 0 10 -4 10 -8 0 -5 16 -17 35
-28 23 -12 30 -21 22 -26 -7 -5 -8 -8 -1 -8 19 0 67 -47 60 -58 -4 -7 1 -9 14
-7 11 2 20 0 20 -5 0 -4 16 -23 35 -41 18 -18 32 -35 30 -39 -2 -3 9 -14 24
-24 30 -21 98 -113 93 -128 -1 -5 2 -7 8 -3 5 3 15 -6 21 -22 5 -15 16 -31 22
-35 9 -6 8 -8 -3 -8 -9 -1 -6 -5 8 -10 12 -5 22 -16 22 -25 0 -8 4 -15 10 -15
5 0 7 -7 4 -15 -4 -8 -1 -15 5 -15 6 0 11 -7 11 -15 0 -8 5 -15 10 -15 6 0 10
-6 10 -14 0 -7 7 -19 15 -26 9 -7 13 -15 10 -18 -3 -3 2 -16 10 -29 14 -20 14
-23 1 -23 -16 0 -42 38 -32 47 2 3 -4 14 -15 26 -10 11 -19 29 -19 39 0 13 -4
17 -12 12 -7 -4 -10 -4 -6 1 4 4 -17 44 -48 88 -30 44 -53 82 -50 84 3 3 -7
16 -22 30 -15 14 -27 29 -27 34 0 5 -4 9 -9 8 -5 0 -13 6 -18 15 -10 18 -48
22 -48 5 0 -5 -5 -7 -11 -4 -6 4 -8 14 -5 22 8 21 -28 87 -60 108 -18 12 -37
15 -61 12 -29 -5 -33 -4 -23 8 14 17 6 61 -15 82 -8 8 -15 12 -15 8 0 -4 -7 1
-16 9 -8 9 -22 16 -29 16 -9 0 -12 6 -9 15 4 11 2 13 -9 10 -8 -4 -21 0 -28 7
-23 21 -98 68 -109 68 -6 0 -9 4 -5 10 3 5 -13 14 -35 21 -22 7 -40 17 -40 22
0 6 -3 7 -6 4 -4 -4 -23 2 -43 13 -44 24 -93 44 -103 42 -5 -1 -8 2 -8 7 0 15
-52 5 -62 -13 -5 -9 -14 -16 -19 -16 -6 0 -8 4 -5 9 8 12 -69 78 -91 78 -10 0
-33 -11 -51 -24 -18 -14 -36 -22 -39 -19 -4 3 -1 6 6 6 27 0 -29 58 -61 64
-133 23 -358 26 -475 5 -63 -11 -77 -17 -84 -37 -5 -12 -8 -26 -8 -30 3 -21
-3 -22 -19 -2 -12 15 -32 23 -62 26 -39 4 -49 1 -78 -25 -19 -17 -31 -35 -28
-40 4 -5 2 -12 -3 -15 -9 -6 5 -78 22 -111 9 -18 8 -19 -6 -6 -10 7 -17 23
-18 35 0 11 -8 41 -17 66 -18 47 -42 61 -68 39 -8 -6 -23 -9 -34 -6 -11 3 -20
2 -20 -2 0 -11 -81 -52 -90 -46 -4 3 -10 -2 -14 -10 -3 -9 -12 -12 -22 -8 -13
5 -15 3 -9 -7 6 -10 3 -12 -13 -8 -15 4 -19 2 -15 -8 3 -8 0 -14 -6 -14 -7 0
-42 -20 -80 -45 -38 -25 -71 -45 -74 -45 -3 0 -16 -10 -29 -22 -13 -13 -35
-31 -49 -41 -23 -17 -37 -57 -20 -57 4 0 8 -6 8 -14 0 -17 -45 -16 -52 2 -2 6
-12 12 -20 12 -9 0 -13 5 -10 10 4 6 11 8 16 5 5 -4 9 0 9 7 0 8 14 22 30 31
17 10 30 22 30 27 0 5 7 6 17 3 10 -4 14 -2 10 4 -7 11 67 73 86 73 5 0 16 9
25 20 21 25 190 112 203 105 5 -4 9 -2 9 4 0 9 55 41 71 41 4 0 20 5 36 12 37
15 51 19 90 25 18 3 30 10 27 15 -4 6 2 8 15 3 13 -4 21 -2 21 5 0 7 7 10 15
6 8 -3 15 -2 15 3 0 5 17 11 38 15 106 19 152 26 207 31 32 3 61 7 63 9 3 4
214 -2 272 -8z m-33 -47 c145 -12 169 -20 153 -49 -6 -11 -35 -93 -65 -182
-60 -178 -69 -195 -119 -233 -76 -58 -198 -36 -252 44 -18 29 -88 216 -141
383 -7 24 31 31 274 47 12 0 79 -4 150 -10z m-677 -111 c0 -11 13 -73 29 -137
59 -234 60 -261 19 -329 -33 -54 -89 -85 -152 -85 -56 0 -93 16 -151 68 -34
30 -82 69 -169 139 -34 27 -67 54 -74 61 -10 9 1 22 55 62 125 92 192 131 383
221 57 26 60 26 60 0z m1178 -13 c73 -32 219 -110 232 -124 5 -6 106 -76 146
-101 13 -8 24 -18 24 -23 0 -4 -19 -24 -42 -45 -23 -20 -80 -73 -126 -117
-120 -113 -144 -128 -212 -129 -71 -1 -129 34 -161 95 -26 52 -27 79 -5 204 9
55 22 139 28 188 7 51 17 87 23 87 6 0 48 -16 93 -35z m-931 -7 c-3 -8 -6 -5
-6 6 -1 11 2 17 5 13 3 -3 4 -12 1 -19z m28 -45 c2 -10 4 -20 5 -23 1 -3 2
-16 1 -30 -2 -21 0 -22 9 -10 10 13 11 12 6 -2 -3 -10 -2 -18 3 -18 5 0 14
-21 21 -47 16 -59 50 -133 62 -133 5 0 6 -5 3 -10 -3 -6 5 -14 20 -20 14 -5
28 -16 31 -24 3 -8 24 -18 47 -21 23 -4 47 -11 54 -17 7 -6 14 -5 18 2 3 5 17
10 29 10 26 0 94 43 114 72 7 10 18 15 24 12 7 -4 8 -2 4 5 -4 6 2 28 14 49
13 20 25 51 27 67 3 17 9 38 14 47 5 9 9 26 9 37 0 11 5 23 11 26 14 9 5 -51
-10 -69 -6 -8 -9 -21 -5 -30 3 -9 1 -16 -6 -16 -6 0 -9 -4 -6 -9 11 -17 -30
-111 -63 -146 -48 -51 -69 -63 -131 -75 -41 -8 -59 -7 -81 4 -16 8 -29 10 -29
5 0 -15 -60 29 -97 70 -33 37 -63 107 -63 148 0 13 -4 23 -8 23 -10 0 -30 60
-37 114 -5 39 3 46 10 9z m740 -108 c-4 -25 -9 -44 -12 -41 -2 2 -1 25 2 51 4
25 9 44 12 41 2 -2 1 -25 -2 -51z m-944 32 c0 -3 5 -21 10 -39 51 -164 57
-254 18 -310 -31 -46 -82 -89 -97 -83 -7 3 -10 0 -7 -5 6 -9 -11 -15 -69 -24
-51 -9 -124 12 -158 43 -37 35 -23 35 48 0 43 -21 58 -23 100 -16 27 4 56 10
64 13 8 3 16 4 16 2 1 -2 18 17 38 40 20 24 36 40 36 35 0 -4 7 4 14 19 8 15
15 49 17 75 2 60 -11 173 -21 173 -3 0 -11 20 -17 45 -6 28 -7 45 -1 43 5 -2
9 -7 9 -11z m935 -111 c-23 -129 -14 -209 31 -255 13 -13 23 -28 23 -33 0 -5
5 -6 11 -2 6 3 14 2 18 -4 4 -6 33 -18 64 -26 54 -14 61 -14 112 6 33 12 76
41 111 74 32 29 60 51 62 49 9 -8 -122 -130 -136 -127 -8 2 -11 -1 -7 -7 3 -6
3 -11 -2 -12 -4 0 -17 -2 -28 -5 -76 -16 -158 -9 -189 17 -6 5 -20 17 -31 27
-51 42 -68 81 -71 163 -3 47 0 79 6 79 5 0 7 6 4 13 -5 14 11 67 21 67 3 0 3
-11 1 -24z m-1576 -56 c0 -4 -10 -10 -22 -14 -13 -3 -34 -22 -47 -43 -20 -32
-22 -41 -13 -66 11 -28 10 -28 -7 -13 -10 9 -22 16 -27 16 -11 0 -74 -58 -74
-68 0 -4 -14 -23 -30 -42 -16 -19 -30 -41 -30 -47 0 -7 -4 -13 -9 -13 -5 0
-11 -10 -15 -22 -5 -20 -8 -21 -17 -8 -9 13 -10 13 -6 -2 6 -18 -13 -68 -25
-68 -5 0 -8 9 -8 20 0 11 5 20 10 20 6 0 10 8 10 18 0 9 12 28 25 41 14 12 23
27 20 31 -3 5 -1 10 3 12 4 1 23 24 41 51 18 26 42 56 53 67 12 11 18 20 12
20 -5 0 5 9 21 20 17 11 26 20 21 20 -5 0 6 14 24 30 18 17 38 30 43 30 5 0 7
6 4 13 -4 10 2 13 19 9 13 -2 24 -8 24 -12z m2047 -101 c-9 -6 -17 -18 -18
-27 0 -11 -2 -13 -6 -4 -6 14 27 56 36 46 3 -3 -2 -10 -12 -15z m-1845 -19 c7
-11 19 -20 26 -20 7 0 11 -4 8 -9 -4 -5 0 -11 6 -14 7 -2 10 -7 7 -10 -3 -4
-23 11 -44 33 -22 22 -34 40 -27 40 6 0 17 -9 24 -20z m98 -92 c0 -5 -9 -3
-20 4 -11 7 -20 18 -20 25 0 9 6 7 20 -4 11 -10 20 -21 20 -25z m-329 15 c13
-16 12 -17 -3 -4 -10 7 -18 15 -18 17 0 8 8 3 21 -13z m2224 -73 c-3 -5 -11
-10 -16 -10 -6 0 -7 5 -4 10 3 6 11 10 16 10 6 0 7 -4 4 -10z m-2135 -21 c0
-6 -4 -7 -10 -4 -5 3 -10 11 -10 16 0 6 5 7 10 4 6 -3 10 -11 10 -16z m2092
-21 c-8 -8 -9 -4 -5 13 4 13 8 18 11 10 2 -7 -1 -18 -6 -23z m-2050 -13 c7 -9
19 -23 27 -31 7 -8 11 -18 8 -21 -7 -7 -37 22 -37 36 0 5 -8 15 -17 20 -10 6
-13 11 -6 11 7 0 18 -7 25 -15z m1975 -74 c-22 -24 -37 -53 -42 -79 -7 -41
-35 -69 -32 -31 1 10 5 19 10 19 5 0 7 6 4 14 -6 16 20 61 58 99 42 41 43 24
2 -22z m-1891 -28 c13 -14 24 -33 24 -42 0 -9 3 -26 6 -38 4 -13 2 -23 -4 -23
-5 0 -15 21 -23 47 -7 26 -21 55 -31 65 -10 10 -15 24 -12 30 6 9 9 9 12 -1 2
-7 15 -24 28 -38z m-511 27 c3 -5 1 -10 -4 -10 -6 0 -11 -7 -11 -15 0 -8 -4
-15 -10 -15 -5 0 -10 -7 -10 -15 0 -25 -23 -65 -37 -65 -7 0 -13 5 -13 10 0 6
5 10 10 10 6 0 10 5 10 12 0 18 41 98 50 98 5 0 12 -4 15 -10z"/>
<path d="M2990 3625 c-33 -61 48 -108 86 -50 15 23 15 27 0 50 -22 34 -68 34
-86 0z m65 -24 c0 -8 -4 -16 -10 -18 -16 -5 -38 14 -30 26 9 16 40 9 40 -8z"/>
<path d="M2384 3512 c-24 -16 -33 -48 -21 -73 16 -32 59 -37 86 -10 26 26 26
32 0 65 -20 26 -44 33 -65 18z m33 -60 c-16 -15 -19 -15 -27 -2 -7 11 -5 19 7
28 25 18 42 -3 20 -26z"/>
<path d="M3632 3504 c-24 -17 -30 -62 -10 -82 13 -13 57 -16 74 -4 23 15 25
48 3 75 -24 31 -36 33 -67 11z m54 -42 c0 -12 -9 -19 -23 -20 -17 -1 -23 4
-23 18 0 14 7 20 23 20 15 0 23 -6 23 -18z"/>
<path d="M1674 3972 c-132 -98 -290 -272 -408 -452 -47 -72 -175 -318 -181
-350 -2 -8 -4 -16 -5 -17 -2 -2 -3 -6 -4 -10 -1 -5 -7 -18 -14 -30 -8 -14 -9
-24 -2 -28 5 -3 10 0 10 7 0 7 14 40 30 73 16 33 30 68 30 78 0 9 4 17 9 17
11 0 41 57 41 77 0 8 4 12 9 9 5 -3 12 10 15 29 4 19 10 35 14 35 4 0 20 25
36 56 20 39 32 51 37 42 7 -10 9 -9 9 3 0 17 70 128 70 113 1 -5 7 3 15 17 28
51 252 289 273 289 6 0 13 9 17 19 3 11 14 23 23 26 22 7 66 44 60 50 -2 3
-40 -21 -84 -53z"/>
<path d="M4310 4016 c0 -15 28 -42 36 -34 7 8 154 -139 154 -154 0 -9 3 -9 10
2 5 8 10 10 10 4 0 -6 21 -33 48 -60 74 -77 147 -164 150 -180 2 -8 8 -14 13
-14 5 0 9 -7 9 -15 0 -8 4 -15 9 -15 5 0 11 -8 15 -17 3 -10 19 -36 35 -58 16
-22 27 -43 25 -47 -3 -5 0 -8 6 -8 6 0 16 -13 21 -30 6 -16 14 -30 18 -30 4 0
20 -29 36 -65 17 -35 33 -65 37 -65 9 0 0 24 -24 68 -10 17 -15 32 -12 32 3 0
-2 7 -10 16 -9 8 -16 22 -16 30 0 8 -4 14 -10 14 -5 0 -10 7 -10 15 0 17 -79
148 -92 153 -4 2 -8 10 -8 18 0 8 -7 17 -15 20 -8 4 -15 10 -15 16 0 11 -47
76 -72 99 -10 9 -18 20 -18 24 0 7 -192 200 -225 225 -104 80 -105 80 -105 56z"/>
<path d="M2875 3334 c-11 -2 -40 -9 -65 -15 -173 -42 -334 -134 -472 -271
l-37 -37 77 1 c73 1 79 3 122 38 221 182 530 240 800 150 60 -20 208 -93 220
-108 3 -4 24 -22 48 -40 38 -30 51 -34 117 -37 41 -2 75 -1 75 2 0 8 -88 88
-145 132 -89 70 -220 134 -350 171 -40 12 -353 23 -390 14z m342 -34 c88 -19
273 -88 273 -102 0 -5 5 -8 12 -8 21 0 98 -65 93 -79 -4 -11 -2 -11 8 -3 10 9
22 3 50 -26 l36 -37 -35 0 c-20 0 -39 6 -44 15 -5 8 -10 11 -10 6 0 -5 -7 -3
-15 4 -8 7 -12 16 -9 21 3 5 -1 6 -9 3 -8 -3 -21 3 -29 13 -7 10 -24 24 -38
32 -41 24 -114 59 -143 70 -15 6 -27 15 -27 21 0 6 -4 8 -10 5 -5 -3 -28 -1
-51 5 -116 31 -325 34 -434 6 -75 -20 -177 -55 -185 -65 -8 -9 -84 -45 -92
-43 -5 1 -8 -2 -8 -7 0 -17 -109 -91 -135 -91 -41 0 -30 20 40 78 47 39 174
113 201 118 19 3 34 10 34 16 0 5 4 7 8 4 4 -2 21 2 37 9 17 8 68 23 115 33
93 21 270 22 367 2z"/>
<path d="M4710 3227 c0 -7 7 -22 15 -33 13 -17 14 -16 4 14 -11 33 -19 41 -19
19z"/>
<path d="M4962 3175 c0 -16 2 -22 5 -12 2 9 2 23 0 30 -3 6 -5 -1 -5 -18z"/>
<path d="M3187 2716 c-50 -18 -62 -29 -87 -83 -20 -42 -21 -58 -18 -247 4
-235 12 -263 88 -303 40 -21 56 -23 199 -23 143 0 161 2 201 23 35 17 51 34
70 72 24 48 25 57 25 250 l0 200 -30 45 c-47 69 -66 75 -250 77 -116 2 -170
-1 -198 -11z m364 -51 c61 -32 69 -61 69 -247 0 -260 -7 -268 -248 -268 -139
0 -161 2 -190 20 -18 11 -37 32 -43 48 -15 36 -15 358 -1 394 7 16 26 37 44
48 29 18 51 20 186 20 119 0 160 -3 183 -15z m35 -550 c-28 -28 -68 -35 -209
-35 -138 0 -217 11 -217 30 0 6 10 6 26 0 42 -16 344 -12 374 5 33 19 45 19
26 0z"/>
<path d="M3282 2558 c-17 -17 -17 -269 0 -286 7 -7 44 -12 94 -12 68 0 83 3
88 17 4 10 8 74 10 143 2 103 -1 127 -14 137 -20 16 -162 17 -178 1z m150
-125 c-5 -148 1 -135 -62 -136 l-55 -1 -1 117 0 117 61 0 61 0 -4 -97z"/>
<path d="M3330 2500 c0 -5 18 -10 39 -10 22 0 43 5 46 10 4 6 -12 10 -39 10
-25 0 -46 -4 -46 -10z"/>
<path d="M25 2710 c-3 -5 8 -46 49 -195 43 -155 68 -248 93 -347 l26 -108 107
0 107 0 22 83 c12 45 21 99 21 119 0 49 25 42 27 -8 0 -19 9 -71 19 -114 l18
-79 108 1 108 1 6 26 c3 14 14 55 24 91 42 147 82 349 72 364 -3 5 -1 6 5 3 7
-4 8 -90 5 -247 l-5 -240 117 0 116 0 0 108 0 107 45 1 45 1 0 -109 0 -108
113 0 112 0 0 330 0 331 -114 -3 -114 -3 2 -102 2 -103 -45 0 -46 0 0 103 0
102 -209 0 -209 0 -11 -35 c-5 -19 -13 -59 -17 -87 -7 -58 -20 -69 -30 -25 -3
15 -12 53 -20 85 -8 32 -14 61 -14 63 0 2 -45 4 -100 3 l-99 -2 -16 -76 c-28
-129 -29 -129 -53 -11 l-17 82 -123 2 c-68 0 -125 -1 -127 -4z m156 -40 l57 0
25 -107 c15 -60 29 -128 33 -153 3 -25 9 -49 12 -54 3 -6 21 51 39 125 19 73
37 147 41 164 8 29 9 30 72 29 62 -1 64 -2 73 -30 29 -100 38 -137 53 -204 20
-94 31 -106 39 -44 3 27 18 100 33 162 l27 113 78 2 c42 1 77 0 77 -2 0 -3 -5
-18 -10 -35 -26 -78 -120 -441 -120 -462 0 -23 -2 -24 -83 -24 l-84 0 -20 78
c-11 42 -29 112 -39 155 -17 74 -34 101 -34 55 0 -13 -10 -57 -21 -98 -12 -41
-28 -101 -36 -132 l-15 -58 -78 0 -77 0 -25 98 c-14 53 -34 124 -43 157 -20
70 -28 101 -49 175 -8 30 -18 66 -22 79 -6 22 -5 24 17 18 13 -4 49 -7 80 -7z
m1164 -257 l0 -263 -73 0 -74 0 3 103 3 102 -88 0 -89 0 2 -102 2 -103 -75 0
-75 0 -3 260 -3 260 78 0 79 0 -4 -100 -3 -100 90 0 90 0 -3 105 -4 106 74 -3
73 -3 0 -262z m-725 102 c0 -8 -2 -15 -4 -15 -2 0 -6 7 -10 15 -3 8 -1 15 4
15 6 0 10 -7 10 -15z m540 -210 c0 -5 -22 -11 -50 -13 -45 -3 -60 4 -45 20 10
10 95 3 95 -7z m-783 -216 c-19 -11 -153 -7 -164 5 -4 3 36 6 88 6 71 -1 90
-3 76 -11z m328 1 c-7 -12 -132 -12 -160 0 -13 6 12 9 73 9 60 1 91 -3 87 -9z
m340 0 c-3 -5 -44 -10 -90 -10 -46 0 -87 5 -90 10 -4 6 28 10 90 10 62 0 94
-4 90 -10z m320 0 c-3 -5 -44 -10 -90 -10 -46 0 -87 5 -90 10 -4 6 28 10 90
10 62 0 94 -4 90 -10z"/>
<path d="M1409 2716 c-2 -2 -3 -142 -1 -310 l3 -306 731 0 c497 0 729 -3 722
-10 -7 -7 -252 -9 -732 -8 -572 2 -722 0 -722 -9 0 -10 155 -13 740 -13 l740
0 0 120 0 120 -137 0 -138 0 3 210 3 210 -604 0 c-332 0 -606 -2 -608 -4z
m991 -30 c0 -3 -4 -8 -10 -11 -5 -3 -10 -1 -10 4 0 6 5 11 10 11 6 0 10 -2 10
-4z m-530 -68 l0 -58 -140 0 -139 0 1 -33 c1 -19 -2 -39 -6 -45 -5 -9 24 -12
111 -12 l118 0 -2 -57 -1 -57 -96 3 c-105 3 -143 -4 -127 -22 13 -17 14 -19 2
-49 l-11 -28 145 0 145 0 0 -55 0 -55 -212 0 -213 0 2 258 c1 141 2 259 2 262
1 3 96 5 211 5 l210 0 0 -57z m490 0 l0 -58 -141 0 -140 0 3 -46 3 -47 108 2
107 2 0 -58 0 -58 -100 3 c-55 2 -106 2 -113 -1 -8 -3 -11 -20 -9 -51 l4 -46
139 0 139 0 0 -55 0 -55 -222 -2 c-161 -2 -222 -6 -221 -14 1 -7 -6 -10 -17
-7 -11 3 -20 10 -20 15 0 5 5 6 10 3 6 -4 17 -1 25 5 12 10 15 57 15 269 l0
256 215 0 215 0 0 -57z m211 -144 c-1 -109 -4 -201 -7 -206 -3 -4 58 -8 135
-8 l141 0 0 -55 0 -55 -210 0 -210 0 0 258 c0 142 2 261 4 263 2 2 37 3 76 2
l72 -2 -1 -197z m-174 134 c-3 -8 -6 -5 -6 6 -1 11 2 17 5 13 3 -3 4 -12 1
-19z m-499 -78 c-1 -16 -4 -30 -7 -30 -3 0 -4 -45 -3 -100 l4 -100 -59 -1
c-32 0 -91 -2 -130 -3 -58 -3 -73 -1 -73 11 0 12 20 14 113 12 l112 -3 1 92 2
92 -114 0 c-87 0 -114 3 -114 13 0 10 26 12 113 11 124 -3 147 1 147 22 0 8 2
14 4 14 3 0 4 -13 4 -30z m497 20 c3 -6 -1 -7 -9 -4 -18 7 -21 14 -7 14 6 0
13 -4 16 -10z m-10 -141 l0 -109 -120 -1 c-66 0 -128 -2 -138 -4 -11 -2 -16 2
-14 8 3 8 39 12 115 12 l112 0 0 87 c0 60 4 88 13 91 6 3 -35 5 -93 5 -150 1
-150 1 -150 12 0 9 173 18 240 12 l35 -4 0 -109z m11 -139 c0 -20 -7 -25 -19
-13 -4 3 -2 12 4 20 15 17 15 17 15 -7z m4 -84 c0 -3 -4 -8 -10 -11 -5 -3 -10
-1 -10 4 0 6 5 11 10 11 6 0 10 -2 10 -4z m5 -47 c-8 -12 -35 -11 -35 2 0 5 5
7 10 4 6 -3 10 -1 10 5 0 6 5 8 10 5 6 -4 8 -11 5 -16z"/>
<path d="M1525 2299 c-11 -16 -1 -19 13 -3 7 8 8 14 3 14 -5 0 -13 -5 -16 -11z"/>
<path d="M3894 2705 c3 -9 6 -158 6 -331 l0 -314 114 0 115 0 3 86 c2 47 -1
89 -7 95 -5 6 -5 13 2 20 13 13 35 3 31 -14 -1 -7 18 -51 42 -99 l45 -88 462
0 462 0 3 43 c2 23 -1 73 -5 111 -7 65 -3 106 9 93 3 -3 12 -33 20 -68 8 -35
21 -70 28 -79 7 -8 22 -34 32 -57 l19 -42 113 -1 112 0 -2 211 -3 211 63 1 62
1 3 -210 2 -209 112 -3 112 -3 6 44 c4 24 5 119 3 210 l-3 167 73 0 c45 0 72
4 72 11 0 7 -26 9 -75 7 -55 -2 -75 0 -75 10 0 6 12 12 28 13 15 0 47 2 71 2
28 1 46 7 49 16 3 8 0 11 -7 7 -6 -4 -11 -2 -11 3 0 6 3 11 8 11 4 0 7 36 7
80 l0 80 -369 0 -369 0 6 -89 c7 -111 -2 -110 -59 2 l-40 82 -358 3 -358 2 8
-67 c4 -38 6 -131 4 -208 -2 -77 -3 -168 -2 -202 0 -35 -3 -63 -8 -63 -5 0
-16 21 -26 48 -10 26 -22 53 -27 60 -7 8 -5 12 7 12 28 0 40 50 40 180 1 157
-8 184 -76 215 -46 21 -64 23 -265 24 -195 2 -215 0 -209 -14z m466 -51 c45
-30 60 -73 60 -175 0 -90 -20 -137 -70 -161 -19 -9 -30 -17 -25 -18 6 0 19
-15 29 -32 11 -18 32 -52 47 -75 l28 -43 -82 0 -83 0 -33 63 c-46 86 -48 87
-101 87 l-47 0 5 -75 5 -75 -77 0 -76 0 0 263 0 263 191 2 c188 1 192 0 229
-24z m560 -37 l0 -58 -137 2 -138 1 -3 -46 -3 -46 113 0 113 0 -2 -56 -1 -57
-113 -1 -112 -1 0 -45 0 -45 141 -3 142 -3 0 -54 0 -55 -212 0 -213 0 2 258
c1 141 3 259 3 262 0 3 95 5 210 5 l210 0 0 -58z m237 21 c14 -24 53 -90 85
-148 32 -58 61 -105 64 -105 6 0 6 216 1 270 -2 18 4 20 71 20 39 0 72 -3 72
-7 0 -5 0 -123 0 -263 l0 -255 -80 0 c-44 0 -80 4 -80 9 0 5 -24 50 -54 99
-29 50 -64 116 -77 146 -13 31 -26 56 -29 56 -3 0 -4 -70 -2 -155 l4 -155 -76
0 -76 0 0 265 0 265 75 0 75 0 27 -42z m811 -15 l-3 -58 -79 0 -78 0 1 -193
c1 -106 5 -200 8 -208 4 -11 -9 -14 -74 -14 l-79 0 4 212 4 211 -85 -6 -85 -6
3 57 c2 31 3 58 4 60 1 1 105 2 231 2 l231 0 -3 -57z m-393 -103 c30 0 55 -4
55 -10 0 -6 -30 -10 -70 -10 -54 0 -70 3 -70 14 0 8 -3 22 -7 32 -5 14 -2 13
15 -4 17 -17 34 -22 77 -22z m-633 -92 c-2 -68 -4 -124 -5 -125 -1 0 -61 -3
-133 -5 -105 -2 -130 0 -126 10 3 10 31 12 113 10 l109 -3 0 82 c0 50 4 85 11
89 17 10 -15 26 -36 18 -9 -4 -58 -7 -109 -8 -80 -1 -92 1 -92 16 0 15 13 17
128 14 102 -2 128 0 128 11 0 7 3 13 8 13 4 0 5 -55 4 -122z m-469 -288 c3
-12 0 -20 -7 -20 -19 0 -24 9 -19 30 6 23 18 18 26 -10z m492 1 c7 -12 -12
-24 -25 -16 -11 7 -4 25 10 25 5 0 11 -4 15 -9z m-860 -51 c-3 -5 -46 -10 -96
-10 -53 0 -89 4 -89 10 0 6 39 10 96 10 61 0 93 -4 89 -10z m1040 0 c-4 -6
-163 -10 -446 -10 -286 0 -439 3 -439 10 0 7 155 10 446 10 294 0 443 -3 439
-10z m320 0 c-7 -12 -142 -12 -170 0 -13 6 14 9 78 9 63 1 96 -3 92 -9z m360
0 c-8 -13 -155 -13 -175 0 -10 7 16 10 83 10 63 0 96 -4 92 -10z"/>
<path d="M4085 2490 l0 -80 73 0 c102 0 112 7 112 80 0 73 -10 80 -112 80
l-73 0 0 -80z m124 30 c31 0 33 -2 26 -27 -8 -34 -1 -29 -57 -36 -42 -6 -48
-4 -48 12 0 15 8 19 46 19 65 2 69 12 6 12 -41 0 -52 3 -52 16 0 12 6 15 23
10 12 -3 37 -6 56 -6z"/>
<path d="M194 1738 c-3 -4 3 -8 14 -8 10 0 65 -4 123 -9 57 -6 140 -13 184
-16 44 -3 116 -10 160 -15 44 -5 112 -9 150 -9 l70 -1 0 -202 c0 -201 8 -266
40 -308 6 -8 17 -26 24 -40 20 -38 49 -58 296 -199 127 -72 236 -135 242 -141
7 -6 23 -14 35 -19 22 -8 201 -111 223 -128 6 -4 33 -19 60 -33 28 -13 94 -50
148 -82 53 -32 102 -58 107 -58 6 0 10 -4 10 -10 0 -5 4 -10 9 -10 5 0 67 -34
137 -76 71 -42 147 -86 169 -99 22 -12 110 -63 195 -112 174 -101 240 -136
246 -131 2 2 -25 21 -59 41 -141 85 -443 268 -457 277 -8 5 -35 21 -60 35 -25
14 -74 43 -110 65 -36 21 -83 49 -105 61 -22 12 -43 27 -48 35 -4 7 -21 15
-37 19 -17 4 -30 11 -30 17 0 6 -3 8 -6 5 -4 -4 -21 4 -37 16 -17 12 -55 36
-84 52 -29 17 -110 69 -180 116 -71 47 -168 111 -218 141 -49 31 -146 90 -215
132 -143 87 -173 112 -202 170 -19 38 -21 58 -22 283 l-2 241 -383 4 c-210 2
-385 0 -387 -4z m736 -54 c0 -23 -2 -24 -15 -10 -8 8 -15 19 -15 25 0 6 7 11
15 11 9 0 15 -10 15 -26z m-3 -56 c-3 -8 -6 -5 -6 6 -1 11 2 17 5 13 3 -3 4
-12 1 -19z m0 -230 c-2 -13 -4 -3 -4 22 0 25 2 35 4 23 2 -13 2 -33 0 -45z
m10 -150 c-3 -7 -5 -2 -5 12 0 14 2 19 5 13 2 -7 2 -19 0 -25z m69 -105 c13
-16 24 -32 24 -37 0 -5 -1 -7 -2 -5 -2 2 -16 19 -32 37 -17 17 -26 32 -22 32
5 0 19 -12 32 -27z"/>
<path d="M2314 1738 c-6 -9 110 -113 179 -160 75 -51 187 -102 296 -135 74
-22 106 -25 236 -26 151 -2 209 7 327 49 55 19 173 80 223 114 43 30 178 147
183 158 1 4 -30 5 -70 4 -69 -4 -76 -6 -138 -53 -173 -130 -382 -189 -591
-168 -89 9 -178 28 -193 41 -6 4 -17 8 -25 8 -32 0 -214 104 -257 147 -12 13
-39 19 -92 23 -40 3 -76 2 -78 -2z m181 -64 c22 -19 57 -43 78 -52 20 -9 37
-20 37 -24 0 -5 7 -8 15 -8 8 0 15 -4 15 -8 0 -12 146 -60 228 -76 38 -7 105
-14 149 -15 93 -3 244 17 255 33 4 6 8 8 8 4 0 -8 77 16 137 43 24 10 48 19
53 19 6 0 8 5 5 10 -3 6 1 10 9 10 9 0 16 3 16 8 0 4 16 16 35 26 19 10 44 27
55 38 12 11 40 22 63 25 39 4 40 3 22 -10 -10 -8 -24 -14 -30 -13 -5 2 -7 1
-2 -1 11 -7 9 -23 -3 -23 -6 0 -20 -9 -32 -20 -12 -11 -34 -26 -50 -32 -15 -7
-28 -19 -28 -26 0 -7 -4 -11 -9 -7 -5 3 -12 1 -16 -4 -8 -14 -107 -58 -205
-91 -77 -27 -176 -41 -290 -43 -68 -1 -169 18 -275 51 -16 5 -47 19 -67 32
-21 12 -38 19 -38 16 0 -7 -82 33 -90 44 -3 3 -20 15 -37 25 -18 11 -33 23
-33 27 0 4 -6 8 -14 8 -7 0 -24 13 -37 29 -13 15 -31 31 -39 34 -8 3 5 6 30 6
38 1 51 -5 85 -35z"/>
<path d="M5429 1743 l-325 -3 -1 -234 c0 -217 -2 -237 -21 -278 -28 -57 -78
-103 -177 -163 -44 -27 -81 -53 -83 -57 -2 -4 -8 -8 -13 -8 -14 0 -303 -182
-442 -277 -42 -29 -79 -53 -83 -53 -4 0 -15 -6 -23 -14 -9 -8 -52 -33 -96 -56
-44 -24 -87 -48 -95 -55 -8 -7 -154 -96 -325 -199 -407 -246 -439 -266 -443
-277 -2 -5 -11 -9 -20 -10 -9 0 -12 -3 -5 -5 10 -5 46 12 103 47 29 18 165 99
192 114 10 6 129 76 266 156 136 81 263 155 282 165 19 11 37 22 40 25 3 3 30
19 60 35 79 44 133 74 330 187 96 55 184 105 195 111 11 6 22 13 25 16 3 3 21
13 40 24 61 33 124 68 162 93 21 12 41 23 46 23 16 0 102 95 122 134 34 67 43
144 38 325 l-3 171 50 0 c27 0 115 6 195 14 80 8 204 18 275 22 72 4 133 9
138 10 4 1 17 2 30 3 47 3 -8 21 -58 18 -27 -1 -197 -3 -376 -4z m-254 -43 c3
-5 2 -10 -4 -10 -5 0 -13 -10 -16 -21 -6 -16 -9 -18 -15 -8 -9 14 5 49 20 49
5 0 12 -4 15 -10z m-28 -132 c-3 -8 -6 -5 -6 6 -1 11 2 17 5 13 3 -3 4 -12 1
-19z m0 -195 c-3 -10 -5 -2 -5 17 0 19 2 27 5 18 2 -10 2 -26 0 -35z m0 -65
c-3 -7 -5 -2 -5 12 0 14 2 19 5 13 2 -7 2 -19 0 -25z m-45 -120 c-8 -8 -9 -4
-5 13 4 13 8 18 11 10 2 -7 -1 -18 -6 -23z m-36 -53 c-38 -35 -46 -31 -11 5
16 16 31 28 33 25 3 -3 -7 -16 -22 -30z"/>
<path d="M1030 1723 c0 -6 7 -18 15 -27 9 -8 15 -17 14 -18 -3 -3 15 -64 21
-70 1 -2 3 -10 5 -18 1 -8 18 -46 36 -85 18 -38 32 -73 31 -77 -1 -5 2 -8 6
-8 4 0 14 -17 21 -37 19 -51 149 -254 185 -288 6 -5 31 -36 55 -68 80 -105
300 -301 318 -283 4 3 -4 14 -16 23 -90 62 -296 276 -364 376 -15 23 -35 49
-43 58 -7 8 -14 23 -14 33 0 9 -4 15 -8 12 -5 -3 -22 17 -38 44 -16 27 -32 50
-36 50 -5 0 -8 4 -8 10 0 13 -60 144 -69 150 -5 3 -11 17 -15 33 -3 15 -11 27
-16 27 -6 0 -10 7 -10 16 0 23 -33 118 -44 125 -20 15 21 19 144 15 73 -2 133
-6 135 -8 3 -3 54 -115 76 -165 8 -18 17 -33 21 -33 5 0 8 -4 8 -10 0 -12 92
-164 102 -168 4 -2 8 -8 8 -13 0 -6 11 -22 25 -37 14 -15 25 -30 25 -33 0 -11
50 -66 148 -165 51 -52 90 -98 87 -104 -3 -5 0 -7 9 -4 9 3 43 -18 87 -55 40
-34 77 -61 84 -61 7 0 20 -9 30 -20 9 -10 20 -18 24 -18 3 1 21 -6 40 -16 27
-14 31 -20 20 -28 -11 -8 -10 -9 4 -4 10 3 34 -5 57 -19 22 -14 48 -25 59 -25
10 0 24 -7 31 -15 7 -8 19 -15 27 -15 8 0 29 -6 46 -14 18 -8 41 -16 52 -19
11 -3 44 -14 72 -25 29 -11 72 -23 95 -27 24 -4 50 -11 60 -16 9 -5 40 -11 70
-14 29 -4 67 -8 83 -11 57 -9 370 -17 363 -9 -4 4 -56 9 -115 11 -123 4 -360
32 -385 45 -9 5 -25 9 -36 9 -19 0 -172 47 -227 70 -81 34 -105 45 -170 77
-77 38 -168 93 -173 105 -2 5 -10 8 -18 8 -8 0 -17 7 -20 15 -4 8 -12 15 -19
15 -27 0 -230 185 -333 305 -73 85 -170 239 -239 380 l-65 135 -159 -3 c-114
-1 -159 -5 -159 -14z"/>
<path d="M1460 1737 c0 -17 129 -258 162 -302 82 -109 157 -201 201 -247 57
-57 195 -174 245 -205 15 -10 29 -21 32 -24 3 -4 66 -38 140 -77 179 -93 358
-153 510 -173 36 -4 79 -11 95 -15 54 -12 328 -9 415 5 308 49 567 155 799
328 106 80 275 251 351 358 48 68 200 335 200 352 0 2 -22 3 -48 3 -48 0 -48
0 -65 -46 -32 -86 -207 -354 -231 -354 -7 0 -26 17 -43 38 -17 20 -45 52 -62
70 -17 18 -31 34 -31 36 0 1 -20 25 -45 52 -69 74 -105 133 -105 171 0 33 -1
33 -46 33 l-47 0 6 -36 c11 -68 47 -120 169 -248 68 -71 127 -137 132 -147 24
-50 -39 -113 -88 -87 -20 11 -98 78 -220 191 -93 86 -163 111 -256 93 -82 -17
-142 -62 -179 -135 -39 -76 -37 -109 18 -310 47 -172 50 -187 35 -208 -28 -44
-90 -50 -121 -12 -6 8 -29 79 -53 159 -50 176 -66 215 -105 259 -55 63 -95 81
-182 81 -68 0 -85 -4 -130 -30 -60 -34 -108 -98 -127 -168 -20 -73 -77 -264
-87 -290 -20 -53 -96 -51 -121 4 -13 28 -8 65 37 264 37 162 29 226 -41 309
-32 38 -107 78 -162 87 -25 4 -60 0 -97 -11 -52 -15 -69 -28 -194 -151 -75
-75 -144 -140 -153 -145 -36 -20 -98 29 -98 78 0 15 38 62 116 142 151 155
172 187 188 274 l7 37 -46 0 -45 0 0 -38 c0 -45 -30 -91 -137 -208 -39 -44
-84 -96 -100 -116 -15 -20 -33 -39 -39 -42 -23 -9 -171 206 -239 347 -27 57
-28 57 -71 57 -24 0 -44 -1 -44 -3z m84 -59 c26 -57 87 -163 99 -170 7 -4 8
-8 3 -8 -5 0 -1 -10 10 -22 11 -13 29 -36 39 -53 10 -16 24 -34 32 -38 7 -4
13 -19 13 -33 0 -14 4 -23 10 -19 6 3 17 -1 26 -9 20 -20 48 -20 68 0 9 8 16
11 16 5 0 -5 -8 -15 -17 -20 -16 -9 -16 -12 -3 -20 11 -8 12 -13 3 -22 -8 -8
-3 -18 20 -40 16 -16 27 -33 23 -37 -4 -4 -18 5 -31 20 -15 18 -25 23 -28 15
-3 -7 -6 -4 -6 6 -1 9 -8 17 -17 17 -8 0 -13 4 -9 9 3 6 -4 15 -15 21 -11 6
-19 14 -17 18 1 4 -1 8 -6 9 -15 5 -35 28 -30 36 3 5 -2 16 -11 25 -43 43 -76
87 -76 99 0 7 -4 13 -8 13 -4 0 -15 15 -23 33 -29 61 -74 142 -82 145 -4 2 -5
8 -1 13 3 5 1 9 -4 9 -6 0 -12 7 -16 15 -11 31 24 14 38 -17z m587 -25 c-10
-35 -48 -90 -57 -81 -2 2 7 25 20 50 13 25 26 56 30 69 12 39 18 4 7 -38z
m1829 12 c7 -25 29 -63 49 -84 58 -62 80 -108 29 -61 -12 11 -18 20 -14 20 4
0 1 6 -6 14 -7 8 -15 12 -18 11 -8 -5 -66 88 -62 98 1 4 -2 17 -8 27 -8 16 -8
20 3 20 8 0 20 -19 27 -45z m593 18 c-7 -2 -13 -10 -13 -17 0 -7 -9 -21 -20
-31 -11 -10 -18 -21 -15 -25 5 -8 -39 -97 -60 -120 -8 -9 -15 -22 -15 -28 0
-7 -4 -12 -10 -12 -5 0 -10 -7 -10 -15 0 -8 -6 -15 -14 -15 -8 0 -18 -14 -21
-31 -5 -21 -10 -27 -15 -19 -5 9 -9 9 -14 1 -4 -6 -4 -15 -1 -21 3 -6 -1 -7
-10 -4 -10 4 -14 2 -10 -8 3 -8 -20 -41 -54 -78 -33 -36 -60 -68 -61 -72 0 -5
-6 -8 -12 -8 -7 0 -24 -14 -37 -30 -13 -17 -29 -30 -37 -30 -7 0 -17 -8 -23
-17 -5 -10 -13 -15 -16 -11 -4 4 0 15 10 24 11 12 15 26 11 46 -5 24 -3 28 18
28 14 0 27 -6 29 -12 3 -8 6 -6 6 5 1 9 6 17 12 17 16 0 61 49 54 60 -3 5 -1
20 5 34 7 19 6 26 -2 26 -6 0 -9 3 -6 6 4 3 15 1 26 -5 27 -15 56 -4 70 27 6
15 28 44 47 64 19 20 35 42 35 48 0 6 5 8 10 5 6 -3 10 3 10 14 0 12 5 21 11
21 5 0 8 4 5 8 -3 5 4 19 15 31 11 12 17 26 14 31 -4 6 0 12 7 15 8 3 22 28
33 55 15 38 24 50 40 49 11 0 14 -3 8 -6z m-2488 -123 c4 -6 1 -9 -7 -8 -8 2
-12 -5 -10 -17 2 -16 1 -17 -7 -5 -7 9 -6 19 1 27 13 16 15 16 23 3z m-49 -62
c4 -7 4 -10 -1 -6 -5 5 -14 -1 -22 -12 -8 -11 -19 -20 -25 -20 -5 0 0 11 13
25 28 29 26 28 35 13z m435 -20 c29 -8 39 -17 39 -32 0 -17 2 -18 10 -6 8 12
14 10 38 -13 16 -15 39 -48 51 -73 20 -38 22 -55 17 -112 -8 -97 -17 -142 -28
-142 -5 0 -7 8 -4 18 3 9 6 34 8 55 1 21 5 40 8 42 9 6 4 76 -8 105 -13 34
-72 100 -89 100 -7 0 -13 4 -13 8 0 30 -161 40 -194 13 -6 -5 -17 -6 -25 -2
-9 6 -3 13 21 24 62 29 110 33 169 15z m1316 -13 c38 -15 66 -45 43 -45 -6 0
-10 4 -10 8 0 12 -70 32 -112 32 -51 0 -98 -19 -138 -57 -19 -18 -38 -33 -42
-33 -5 0 -8 -7 -8 -16 0 -9 -5 -12 -12 -8 -6 4 -9 3 -6 -2 3 -5 2 -38 -2 -74
-5 -36 -5 -70 0 -75 5 -6 5 -17 1 -24 -12 -19 -18 -3 -21 54 -4 97 -1 113 26
154 14 23 29 41 33 41 3 0 18 11 33 24 48 46 133 54 215 21z m333 10 c7 -8 8
-15 2 -15 -5 0 -15 7 -22 15 -7 8 -8 15 -2 15 5 0 15 -7 22 -15z m-2146 -40
c-4 -8 -12 -15 -20 -15 -8 0 -14 -5 -14 -12 0 -6 -3 -8 -7 -5 -3 4 2 16 13 26
23 24 35 26 28 6z m493 -15 c52 -25 100 -80 109 -125 7 -39 -2 -159 -16 -215
-5 -19 -17 -77 -26 -127 -9 -51 -21 -93 -25 -93 -17 0 -164 64 -214 93 -133
78 -174 104 -222 140 -47 35 -68 67 -45 67 8 0 49 36 180 162 120 115 179 137
259 98z m1318 -10 c22 -11 70 -46 106 -78 82 -71 95 -81 158 -128 56 -42 60
-52 33 -74 -67 -55 -222 -155 -299 -193 -58 -30 -170 -77 -180 -77 -2 0 -3 9
-3 20 0 11 -18 91 -40 179 -22 87 -40 174 -40 192 1 48 32 112 68 138 77 54
119 59 197 21z m385 8 c0 -6 -6 -5 -15 2 -8 7 -15 14 -15 16 0 2 7 1 15 -2 8
-4 15 -11 15 -16z m-1908 -12 c-5 -19 -6 -19 -13 0 -6 15 -8 13 -8 -11 -1 -23
-4 -27 -11 -15 -8 13 -10 12 -10 -2 0 -10 -7 -18 -16 -18 -14 0 -14 1 0 16 9
8 20 23 26 33 13 25 39 23 32 -3z m1608 10 c0 -2 -7 -7 -16 -10 -8 -3 -12 -2
-9 4 6 10 25 14 25 6z m14 -22 c16 -6 12 -24 -5 -24 -6 0 -8 4 -5 9 4 5 0 12
-6 14 -7 3 -10 6 -6 6 3 1 13 -2 22 -5z m-1964 -8 c0 -2 -7 -9 -15 -16 -13
-11 -14 -10 -9 4 5 14 24 23 24 12z m2046 -68 l29 -33 -35 30 c-19 17 -37 31
-39 33 -2 1 0 2 5 2 6 0 23 -15 40 -32z m-1825 -17 c-31 -31 -36 -26 -9 7 13
16 24 25 26 21 2 -4 -6 -17 -17 -28z m985 4 c61 -19 95 -48 128 -111 27 -50
32 -74 18 -74 -9 0 -48 81 -44 92 1 5 -2 7 -7 5 -5 -1 -20 10 -35 26 -14 15
-29 28 -33 30 -5 1 -7 4 -6 7 1 3 -30 6 -69 8 -51 3 -76 -1 -94 -13 -14 -9
-30 -13 -37 -9 -7 4 -9 4 -5 -1 4 -4 0 -14 -10 -21 -21 -16 -32 -17 -32 -4 0
6 8 10 18 10 13 0 14 2 4 9 -15 9 -6 18 38 38 60 27 97 29 166 8z m38 -78 c41
-32 65 -74 94 -167 12 -36 37 -110 56 -165 19 -55 33 -101 31 -103 -4 -4 -4
-4 -145 -22 -84 -11 -279 -8 -345 5 -11 2 -40 6 -63 10 -38 5 -42 4 -30 -9 35
-35 263 -48 479 -28 84 8 100 12 125 35 31 29 40 32 49 17 9 -15 62 -12 94 5
16 8 34 28 41 44 10 26 15 29 31 20 11 -5 17 -14 14 -20 -8 -12 40 -12 63 1
54 31 156 70 180 69 23 -2 24 -2 5 -6 -13 -2 -23 -9 -23 -15 0 -5 -7 -7 -16
-4 -9 3 -12 2 -9 -5 4 -6 -4 -8 -22 -4 -15 3 -22 2 -15 -1 18 -8 4 -24 -15
-17 -10 4 -14 2 -10 -4 3 -5 1 -10 -6 -10 -7 0 -47 -15 -90 -32 -44 -18 -85
-30 -93 -27 -8 3 -13 2 -10 -2 4 -8 -38 -21 -114 -38 -14 -3 -34 -7 -45 -9
-11 -3 -49 -9 -83 -15 -35 -5 -69 -13 -74 -17 -7 -4 -8 -1 -3 7 6 10 4 11 -11
5 -26 -11 -284 -18 -284 -8 0 5 -24 9 -52 9 -58 0 -250 34 -258 44 -3 4 -12 7
-20 7 -21 0 -90 33 -90 44 0 5 7 9 16 9 8 0 13 4 10 9 -3 5 1 11 9 15 8 3 15
16 16 28 0 19 2 18 12 -9 7 -17 15 -35 20 -39 4 -4 7 -17 7 -28 0 -17 2 -18
10 -6 8 13 11 11 16 -7 4 -13 10 -23 15 -23 5 0 6 7 2 16 -5 14 -3 15 12 7 21
-12 67 8 91 40 16 22 16 22 10 -5 -7 -31 8 -38 22 -10 5 9 35 92 66 184 58
174 77 207 136 239 53 29 146 22 194 -14z m-264 -11 c0 -5 -3 -6 -7 -3 -6 6
-34 -44 -37 -65 -1 -3 -4 -10 -8 -14 -5 -4 -8 -16 -8 -26 0 -10 -9 -35 -21
-56 -14 -24 -19 -29 -14 -12 4 14 7 33 8 43 1 9 5 17 10 17 4 0 6 4 2 10 -3 5
-1 17 4 27 5 10 15 33 21 51 7 17 16 32 21 32 5 0 9 8 9 18 0 14 2 15 10 2 5
-8 10 -19 10 -24z m-820 21 c0 -2 -9 -12 -20 -22 -24 -21 -27 -14 -4 9 15 15
24 20 24 13z m-140 -56 c0 -10 40 -8 57 2 11 7 12 -35 1 -43 -10 -8 3 -51 13
-44 5 3 9 0 9 -6 0 -6 4 -9 8 -6 5 3 37 -17 73 -44 35 -27 68 -49 73 -50 5 0
23 -11 40 -24 17 -13 42 -27 56 -31 29 -9 52 -30 42 -40 -4 -3 5 -4 21 0 15 4
27 3 27 -2 0 -5 15 -15 33 -22 47 -20 59 -23 88 -25 22 -1 24 -4 15 -18 -12
-19 -31 -23 -41 -9 -3 5 -19 12 -35 16 -17 4 -30 10 -30 15 0 5 -10 10 -22 12
-13 2 -22 9 -20 16 1 8 -2 11 -7 7 -6 -3 -21 -3 -35 1 -18 4 -23 10 -18 22 5
14 3 15 -10 4 -12 -10 -18 -9 -28 3 -7 8 -18 15 -24 15 -7 0 -21 8 -32 18 -10
9 -36 26 -57 37 -22 11 -44 27 -50 35 -7 8 -24 21 -39 29 -15 8 -45 31 -67 53
-23 21 -41 37 -41 34 0 -2 -11 5 -24 17 -17 15 -21 24 -13 29 17 11 37 10 37
-1z m1575 -49 c1 -4 4 -16 8 -27 8 -24 17 -109 11 -102 -6 6 -34 115 -34 134
0 15 14 10 15 -5z m-219 -42 c1 -23 25 -104 34 -115 9 -12 23 -85 16 -85 -2 0
-14 30 -26 68 -11 37 -25 75 -31 84 -5 10 -9 26 -9 37 0 11 -6 22 -12 25 -7 3
-4 5 7 3 11 -1 20 -9 21 -17z m779 -34 c-15 -13 -34 -22 -42 -19 -7 3 -13 0
-13 -6 0 -6 -12 -17 -27 -24 -35 -15 -54 -33 -45 -41 3 -4 -1 -4 -11 0 -9 3
-17 2 -17 -3 0 -6 -11 -15 -25 -21 -29 -13 -62 -16 -51 -4 4 4 11 7 14 7 4 0
21 10 39 23 17 12 34 22 37 22 8 0 69 43 96 68 15 14 26 18 31 11 3 -6 9 -1
12 12 5 19 9 21 18 12 10 -10 6 -18 -16 -37z m-1485 -11 c0 -14 -4 -25 -9 -25
-4 0 -6 11 -3 25 2 14 6 25 8 25 2 0 4 -11 4 -25z m-13 -77 c-3 -8 -6 -5 -6 6
-1 11 2 17 5 13 3 -3 4 -12 1 -19z m213 -8 c0 -11 -4 -20 -9 -20 -5 0 -7 9 -4
20 3 11 7 20 9 20 2 0 4 -9 4 -20z m-33 -92 c-3 -8 -6 -5 -6 6 -1 11 2 17 5
13 3 -3 4 -12 1 -19z m629 -39 c3 -6 2 -15 -4 -21 -6 -6 -11 -2 -15 11 -5 22
7 29 19 10z"/>
<path d="M2364 1325 c-20 -30 -11 -62 21 -77 52 -23 99 46 59 86 -23 24 -61
20 -80 -9z m64 -28 c3 -12 -3 -17 -22 -17 -25 0 -35 18 -19 34 12 12 38 2 41
-17z"/>
<path d="M3619 1329 c-26 -26 -21 -59 13 -78 37 -21 78 0 78 40 0 55 -52 77
-91 38z m55 -26 c9 -23 -16 -36 -34 -17 -13 13 -13 16 0 24 21 14 27 12 34 -7z"/>
<path d="M3000 1190 c-25 -25 -26 -52 -2 -73 51 -46 118 21 72 71 -26 27 -44
28 -70 2z m50 -30 c11 -7 11 -10 2 -10 -7 0 -10 -4 -7 -10 3 -5 -1 -10 -9 -10
-18 0 -29 16 -21 30 8 12 16 12 35 0z"/>
<path d="M4710 1726 c0 -43 -189 -376 -261 -460 -10 -12 -27 -31 -38 -44 -160
-188 -359 -342 -592 -459 -69 -34 -131 -63 -138 -63 -6 0 -19 -4 -29 -9 -45
-23 -292 -91 -332 -91 -11 0 -20 -4 -20 -10 0 -12 4 -12 60 1 25 6 54 12 65
14 103 17 146 27 192 45 29 11 79 31 110 42 32 12 70 31 86 41 15 10 27 14 27
7 0 -6 10 -2 22 10 14 13 29 18 42 14 16 -4 17 -3 7 4 -11 8 -9 12 10 18 13 4
27 7 32 6 4 -1 7 5 7 14 0 11 6 14 21 9 13 -4 19 -3 16 2 -4 6 8 20 25 33 17
12 28 16 24 9 -4 -8 -2 -7 6 2 7 9 19 14 26 12 6 -3 12 2 12 11 0 9 4 16 8 16
5 0 18 9 30 20 12 12 22 16 22 10 0 -5 5 -10 11 -10 5 0 7 5 4 10 -4 6 6 21
21 33 16 12 58 48 94 80 36 32 66 53 68 47 2 -5 8 -10 14 -10 6 0 6 6 -2 15
-10 12 -2 25 44 77 31 35 56 69 56 76 0 7 5 10 10 7 6 -3 10 0 10 9 0 8 4 16
9 18 11 4 81 107 81 119 0 5 5 9 10 9 6 0 10 6 10 13 0 7 9 23 20 35 11 12 20
26 20 32 0 12 22 53 33 61 5 3 9 12 10 20 5 29 30 79 40 79 6 0 8 3 4 6 -3 4
0 19 9 35 l15 29 105 -1 c58 0 108 2 112 5 3 3 -15 6 -39 7 -24 0 -81 2 -126
5 -70 4 -83 3 -83 -10z"/>
<path d="M4975 1730 c-3 -5 1 -10 10 -10 9 0 13 5 10 10 -3 6 -8 10 -10 10 -2
0 -7 -4 -10 -10z"/>
<path d="M5008 1715 c-3 -14 -2 -25 3 -25 12 0 30 36 22 44 -12 12 -21 6 -25
-19z"/>
<path d="M4990 1676 c0 -2 7 -6 15 -10 8 -3 15 -1 15 4 0 6 -7 10 -15 10 -8 0
-15 -2 -15 -4z"/>
<path d="M4991 1653 c-1 -6 -4 -20 -7 -30 -5 -17 -5 -17 6 0 6 10 9 23 6 30
-3 9 -5 9 -5 0z"/>
<path d="M4963 1573 c-3 -10 -11 -24 -17 -32 -13 -16 -37 -84 -31 -89 2 -2 11
10 20 27 8 17 13 31 9 31 -4 0 -2 6 4 13 13 16 33 67 26 67 -2 0 -7 -8 -11
-17z"/>
<path d="M1330 1554 c0 -4 18 -42 39 -85 41 -81 81 -143 125 -194 14 -16 26
-33 26 -37 0 -17 173 -195 264 -273 146 -125 365 -257 537 -323 19 -8 43 -18
54 -23 35 -15 228 -67 290 -78 33 -6 74 -13 90 -16 42 -8 371 -19 365 -12 -3
3 -45 8 -95 11 -49 4 -117 9 -150 12 -33 3 -76 7 -95 9 -19 1 -35 3 -35 4 0 2
-13 5 -30 7 -80 13 -211 46 -224 57 -8 7 -16 11 -18 9 -7 -7 -63 10 -58 18 2
4 -7 8 -21 8 -14 0 -35 4 -47 10 -134 62 -180 82 -188 82 -6 0 -7 5 -4 11 4 6
1 9 -6 8 -19 -3 -50 11 -44 21 2 4 -13 12 -33 18 -21 7 -53 25 -72 42 -18 16
-43 33 -54 36 -28 9 -57 35 -50 45 3 5 -3 9 -13 9 -20 0 -73 44 -73 61 0 6 -4
8 -9 4 -10 -6 -76 53 -76 67 0 4 -4 9 -10 11 -21 5 -71 63 -66 76 3 9 0 12 -7
7 -14 -8 -25 1 -74 66 -20 26 -38 45 -41 42 -2 -3 -10 9 -17 25 -6 16 -18 32
-26 35 -8 3 -14 11 -14 18 0 7 -12 27 -28 43 -30 35 -45 59 -79 128 -21 42
-33 58 -33 41z"/>
<path d="M4720 1529 c0 -5 5 -7 10 -4 6 3 10 8 10 11 0 2 -4 4 -10 4 -5 0 -10
-5 -10 -11z"/>
<path d="M1310 1474 c11 -19 18 -39 15 -45 -4 -5 -2 -9 4 -9 6 0 8 -7 5 -15
-4 -8 -1 -15 5 -15 7 0 21 -19 31 -43 11 -24 28 -54 38 -68 10 -13 22 -31 26
-39 25 -53 83 -135 129 -181 15 -16 27 -31 27 -34 0 -12 154 -166 202 -202 26
-20 45 -40 42 -45 -3 -5 -2 -7 3 -6 14 4 83 -46 79 -57 -2 -6 5 -12 16 -12 11
-1 28 -9 37 -17 10 -9 23 -16 29 -16 7 0 12 -4 12 -9 0 -5 12 -14 28 -20 15
-6 50 -25 77 -42 28 -16 58 -33 69 -36 10 -3 39 -17 65 -29 25 -13 50 -24 54
-24 5 0 23 -6 40 -14 53 -22 234 -76 312 -92 110 -23 375 -38 455 -26 47 8 36
9 -70 9 -191 1 -352 26 -545 86 -55 17 -102 31 -105 32 -3 1 -18 7 -35 14 -16
7 -46 19 -66 26 -20 7 -80 36 -133 64 -254 134 -489 338 -650 565 -27 38 -60
90 -74 115 -13 25 -27 48 -31 51 -3 3 -15 22 -26 43 -11 20 -23 37 -27 37 -5
0 -8 6 -8 14 0 18 -32 76 -42 76 -4 0 1 -16 12 -36z"/>
<path d="M4692 1480 c-12 -16 -22 -33 -22 -39 0 -5 -7 -11 -15 -15 -8 -3 -15
-15 -15 -26 0 -11 -4 -20 -10 -20 -5 0 -21 -20 -36 -45 -14 -25 -30 -45 -35
-45 -5 0 -9 -6 -9 -12 -1 -20 -190 -213 -206 -210 -9 2 -12 -3 -7 -14 5 -13 3
-15 -7 -9 -10 6 -12 4 -7 -9 4 -9 3 -14 -2 -11 -5 3 -12 1 -16 -4 -3 -6 -11
-9 -18 -7 -7 1 -8 1 -4 -2 4 -2 3 -10 -4 -18 -6 -8 -15 -11 -20 -8 -5 3 -8 1
-7 -4 4 -14 -101 -94 -114 -86 -7 5 -8 3 -4 -5 5 -8 0 -14 -13 -18 -12 -3 -21
-9 -21 -14 0 -5 -6 -9 -13 -9 -7 0 -22 -8 -33 -18 -22 -21 -87 -59 -191 -113
-52 -27 -83 -37 -101 -34 -15 3 -21 2 -14 -1 15 -7 -29 -34 -54 -34 -8 0 -14
-4 -14 -9 0 -5 -9 -11 -20 -14 -11 -3 -20 0 -20 6 0 8 -3 8 -8 2 -8 -11 -71
-35 -93 -35 -8 0 -26 -6 -40 -14 -14 -7 -48 -17 -75 -21 -27 -5 -56 -10 -64
-12 -8 -2 -36 -7 -63 -10 -26 -3 -50 -10 -53 -15 -11 -18 163 11 319 52 81 21
194 63 285 105 29 14 57 25 61 25 5 0 11 3 13 8 2 4 19 15 38 26 46 25 214
128 220 136 3 3 32 27 65 52 69 52 176 156 255 247 30 35 60 68 65 75 52 57
169 256 152 256 -2 0 -13 -13 -25 -30z"/>
<path d="M4723 1430 c-27 -49 -139 -234 -155 -255 -189 -249 -432 -454 -685
-580 -172 -85 -299 -130 -503 -175 -84 -18 -84 -19 -34 -19 28 -1 73 6 100 14
27 8 59 15 72 15 12 0 30 4 40 9 27 15 166 55 181 52 7 -1 10 2 6 8 -3 6 1 11
9 11 20 0 150 60 154 72 2 4 12 8 22 8 9 0 23 7 30 15 7 8 17 15 23 15 12 0
205 127 228 149 8 9 33 29 55 46 51 39 218 207 254 256 15 21 31 35 35 31 5
-4 5 -2 2 4 -4 6 2 19 13 29 11 10 20 24 20 32 0 7 6 16 14 19 8 3 17 13 20
22 5 17 26 52 36 62 3 3 27 49 53 103 51 104 58 146 10 57z"/>
<path d="M4886 1424 c-4 -10 -1 -14 6 -12 15 5 23 28 10 28 -5 0 -13 -7 -16
-16z"/>
<path d="M4867 1380 c-9 -11 -19 -31 -23 -44 -3 -13 -17 -33 -30 -45 -14 -12
-22 -27 -18 -33 4 -7 3 -8 -4 -4 -7 4 -16 -2 -22 -16 -18 -39 -40 -74 -40 -63
0 5 -16 -14 -35 -43 -20 -28 -40 -52 -45 -52 -6 0 -10 -6 -10 -14 0 -8 -7 -16
-15 -20 -8 -3 -15 -13 -15 -22 0 -10 -5 -14 -16 -10 -8 3 -13 2 -10 -3 8 -12
-30 -59 -54 -66 -11 -4 -20 -11 -20 -17 0 -12 -70 -78 -82 -78 -4 0 -8 -7 -8
-17 0 -9 -3 -13 -6 -10 -4 3 -22 -9 -41 -28 -19 -19 -46 -43 -61 -54 -20 -15
-23 -20 -10 -21 9 0 23 6 30 13 7 6 38 31 68 53 92 69 204 184 295 304 27 36
53 67 57 68 4 2 8 7 8 12 0 4 18 34 39 66 74 112 116 199 68 144z"/>
<path d="M1746 731 c-3 -5 1 -11 9 -14 9 -4 12 -1 8 9 -6 16 -10 17 -17 5z"/>
<path d="M3248 583 c6 -2 18 -2 25 0 6 3 1 5 -13 5 -14 0 -19 -2 -12 -5z"/>
<path d="M2111 505 c16 -16 212 -115 229 -115 6 0 39 -10 73 -21 133 -46 341
-79 532 -86 99 -3 178 -3 175 -1 -3 3 -57 9 -120 13 -63 4 -128 9 -145 11 -80
9 -183 23 -205 28 -14 3 -54 12 -90 20 -36 7 -99 26 -140 40 -41 15 -81 27
-87 28 -7 1 -13 5 -13 8 0 7 -44 21 -75 25 -5 0 -21 7 -35 15 -46 27 -115 51
-99 35z"/>
<path d="M3905 493 c-10 -3 -29 -12 -41 -19 -20 -14 -50 -23 -84 -27 -8 -1
-21 -8 -28 -14 -7 -7 -25 -16 -40 -19 -15 -3 -36 -9 -47 -14 -21 -8 -128 -40
-207 -60 -26 -7 -60 -13 -77 -14 -16 0 -27 -4 -25 -7 2 -4 -8 -6 -22 -6 -14 0
-31 -6 -37 -13 -9 -10 -8 -12 5 -7 9 3 54 11 99 17 168 23 497 136 524 180 3
5 5 9 3 9 -2 -1 -12 -4 -23 -6z"/>
<path d="M3249 399 c-10 -6 -7 -9 14 -9 29 0 35 5 14 13 -8 3 -20 1 -28 -4z"/>
<path d="M3205 303 c-33 -2 -64 -9 -70 -15 -7 -8 -5 -9 8 -4 10 3 45 6 78 6
33 0 59 4 59 10 0 6 -3 9 -7 8 -5 -1 -35 -3 -68 -5z"/>
</g>
</svg>
